<mxfile host="app.diagrams.net" modified="2023-10-20T10:11:57.248Z" agent="Mozilla/5.0 (Macintosh; Intel Mac OS X 10_15_7) AppleWebKit/537.36 (KHTML, like Gecko) Chrome/118.0.0.0 Safari/537.36" version="22.0.5" etag="M43aeWY7SOaaJhj1DEf1" type="github">
  <diagram name="PÃ¡gina-1" id="-HR77-gdkcPESgYqS717">
    <mxGraphModel>
      <root>
        <mxCell id="0" />
        <mxCell id="1" parent="0" />
      </root>
    </mxGraphModel>
  </diagram>
</mxfile>
